<svg id="Component_1_1" data-name="Component 1 – 1" xmlns="http://www.w3.org/2000/svg" width="488.022" height="466.834" viewBox="0 0 488.022 466.834">
  <g id="star-svgrepo-com" transform="translate(0 -10.593)">
    <path id="Path_1" data-name="Path 1" d="M471.563,173.778l-145.5-20.8-64.4-132c-8-15.4-30-12.2-35.3,0l-64.4,132-145.6,20.8c-16.4,1-21.6,20.9-10.4,33.2l105,102.9-25,144.5c-2.9,17.8,16.7,27.8,28.1,20.8l129.9-68.6,129.9,67.6c13.6,7,29.8-2.8,28.1-19.7l-25-144.6,105-102.9C494.663,193.478,485.563,175.478,471.563,173.778Zm-128.9,114.3c-4.2,5.2-6.2,11.4-5.2,17.7l19.7,116.4-103.9-55.1c-6.7-2.8-13-2.8-18.7,0l-103.9,55.1,19.7-116.4c1-7.3-1-13.5-5.2-17.7l-84.1-82.1,116.4-16.6a19.035,19.035,0,0,0,14.6-10.4l52-105,52,105c3.1,5.2,8.3,9.4,14.6,10.4l116.2,16.6Z"/>
  </g>
  <path id="Path_2" data-name="Path 2" d="M43.825,196.514l139.29-19.543L243.308,53.29,323.5,185.273l136.879,17.5-96.049,105.56L381.277,440,260.911,399.343,125.656,447.611l10.4-132.163Z" transform="translate(-6 -17)"/>
</svg>
