<svg xmlns="http://www.w3.org/2000/svg" width="220" height="180" viewBox="0 0 220 180">
  <g id="_-Product-Icons" data-name="ðŸ”-Product-Icons" transform="translate(-2 -3)">
    <g id="ic_fluent_people_28_filled" transform="translate(2 3)">
      <path id="_-Color" data-name="ðŸŽ¨-Color" d="M20.333,104.739l100.833.008c9.66,0,17.583,6.382,18.283,14.484l.05,1.169v19.557C139.491,172.826,100.2,183,70.75,183c-28.863,0-67.182-9.771-68.7-41.1L2,139.957V120.391c0-8.247,7.484-15.011,16.966-15.609Zm121.183.008,62.15-.008c9.66,0,17.583,6.389,18.283,14.485l.05,1.168v15.652c-.009,29.418-31.442,39.13-55,39.13a81.347,81.347,0,0,1-30.332-5.674,40.421,40.421,0,0,0,11.938-27.107l.061-2.436V120.4a21.2,21.2,0,0,0-5.994-14.485l-1.156-1.167,62.15-.008ZM70.75,3c27.839,0,50.417,19.276,50.417,43.043S98.589,89.087,70.75,89.087,20.333,69.811,20.333,46.043,42.911,3,70.75,3ZM171.583,18.652c22.779,0,41.25,15.77,41.25,35.217s-18.471,35.217-41.25,35.217-41.25-15.77-41.25-35.217S148.8,18.652,171.583,18.652Z" transform="translate(-2 -3)" fill="#2b58de"/>
    </g>
  </g>
</svg>
